HIERARCHY
ROOT joint_Root
{
	OFFSET 0.0 0.0 0.0
	CHANNELS 6 Xposition Yposition Zposition Zrotation Xrotation Yrotation 
	JOINT Hips
	{
		OFFSET 4.5925 91.4895 -427.239
		CHANNELS 6 Xposition Yposition Zposition Zrotation Xrotation Yrotation 
		JOINT Spine
		{
			OFFSET 15.7357 0.0 0.0
			CHANNELS 6 Xposition Yposition Zposition Zrotation Xrotation Yrotation 
			JOINT Chest
			{
				OFFSET 8.98455 -0.406207 0.0
				CHANNELS 6 Xposition Yposition Zposition Zrotation Xrotation Yrotation 
				JOINT Neck
				{
					OFFSET 16.3773 0.0 0.0
					CHANNELS 6 Xposition Yposition Zposition Zrotation Xrotation Yrotation 
					JOINT Head
					{
						OFFSET 6.45672 0.0 0.0
						CHANNELS 6 Xposition Yposition Zposition Zrotation Xrotation Yrotation 
						End Site
						{
							OFFSET 0.0 0.0 0.0
						}
					}
				}
				JOINT Shoulder_L
				{
					OFFSET 12.9942 -0.242716 4.98039
					CHANNELS 6 Xposition Yposition Zposition Zrotation Xrotation Yrotation 
					JOINT UpperArm_L
					{
						OFFSET 5.34809 0.0 0.0
						CHANNELS 6 Xposition Yposition Zposition Zrotation Xrotation Yrotation 
						JOINT LowerArm_L
						{
							OFFSET 24.3286 1.87007e-05 0.0
							CHANNELS 6 Xposition Yposition Zposition Zrotation Xrotation Yrotation 
							JOINT Hand_L
							{
								OFFSET 22.2916 0.0 0.0
								CHANNELS 6 Xposition Yposition Zposition Zrotation Xrotation Yrotation 
								End Site
								{
									OFFSET 0.0 0.0 0.0
								}
							}
						}
					}
				}
				JOINT Shoulder_R
				{
					OFFSET 12.9945 -0.242716 -4.98039
					CHANNELS 6 Xposition Yposition Zposition Zrotation Xrotation Yrotation 
					JOINT UpperArm_R
					{
						OFFSET -5.34813 0.0 0.0
						CHANNELS 6 Xposition Yposition Zposition Zrotation Xrotation Yrotation 
						JOINT LowerArm_R
						{
							OFFSET -24.3289 0.000322201 0.0
							CHANNELS 6 Xposition Yposition Zposition Zrotation Xrotation Yrotation 
							JOINT Hand_R
							{
								OFFSET -22.2915 -0.000108084 0.0
								CHANNELS 6 Xposition Yposition Zposition Zrotation Xrotation Yrotation 
								End Site
								{
									OFFSET 0.0 0.0 0.0
								}
							}
						}
					}
				}
			}
		}
		JOINT UpperLeg_L
		{
			OFFSET -2.19248 -6.46944 0.0
			CHANNELS 6 Xposition Yposition Zposition Zrotation Xrotation Yrotation 
			JOINT LowerLeg_L
			{
				OFFSET 39.0811 0.0 -1.23785e-05
				CHANNELS 6 Xposition Yposition Zposition Zrotation Xrotation Yrotation 
				JOINT Foot_L
				{
					OFFSET 40.9854 0.0 -1.26872e-05
					CHANNELS 6 Xposition Yposition Zposition Zrotation Xrotation Yrotation 
					JOINT Toes_L
					{
						OFFSET 11.7543 0.0 0.0
						CHANNELS 6 Xposition Yposition Zposition Zrotation Xrotation Yrotation 
						End Site
						{
							OFFSET 0.0 0.0 0.0
						}
					}
				}
			}
		}
		JOINT UpperLeg_R
		{
			OFFSET -2.19251 6.46944 0.0
			CHANNELS 6 Xposition Yposition Zposition Zrotation Xrotation Yrotation 
			JOINT LowerLeg_R
			{
				OFFSET -39.0811 -0.00228153 -0.0401928
				CHANNELS 6 Xposition Yposition Zposition Zrotation Xrotation Yrotation 
				JOINT Foot_R
				{
					OFFSET -40.9854 0.0 0.0
					CHANNELS 6 Xposition Yposition Zposition Zrotation Xrotation Yrotation 
					JOINT Toes_R
					{
						OFFSET -11.7543 0.0 0.0
						CHANNELS 6 Xposition Yposition Zposition Zrotation Xrotation Yrotation 
						End Site
						{
							OFFSET 0.0 0.0 0.0
						}
					}
				}
			}
		}
	}
}
MOTION
Frames:	5
Frame Time:	0.0333333
0.000000 0.000000 0.000000 0.000000 0.000000 -0.000000 1.311360 95.852100 -442.137000 85.538500 6.739370 -24.062000 15.735700 0.000005 -0.000001 42.344000 79.907700 -38.841100 8.984550 -0.406207 -0.000000 6.469690 -14.917500 7.877140 16.377300 -0.000001 -0.000001 1.972280 2.555060 -0.062638 6.456720 -0.000001 -0.000000 -9.482060 10.958900 1.767130 12.994200 -0.242716 4.980390 -84.907500 -16.448000 -72.529200 5.348090 -0.000007 -0.000001 -61.816500 -3.458410 -60.127500 24.328600 0.000019 0.000005 11.111400 -7.480550 -123.541000 22.291600 -0.000001 0.000005 2.402280 5.381790 -2.355560 12.994500 -0.242716 -4.980390 95.437800 -14.371700 -69.017300 -5.348130 -0.000001 -0.000004 -59.905100 23.972600 36.782400 -24.328900 0.000322 -0.000009 -7.614240 -6.557020 -49.493400 -22.291500 -0.000108 -0.000004 7.097120 5.555490 -8.967750 -2.192480 -6.469440 -0.000000 -164.298000 -23.194600 5.598750 39.081100 -0.000007 -0.000012 0.111133 -0.381831 16.228000 40.985400 -0.000006 -0.000013 -4.077030 9.614540 -24.132500 11.754300 -0.000000 0.000003 -0.000777 -0.012184 -17.072400 -2.192510 6.469440 -0.000001 -174.247000 2.938210 120.973000 -39.081100 -0.002282 -0.040193 0.034462 -0.023664 52.843400 -40.985400 0.000008 0.000006 -1.217060 0.944992 -72.057800 -11.754300 -0.000006 -0.000006 -0.025233 -0.194721 -24.540000
0.000000 0.000000 0.000000 0.000000 0.000000 -0.000000 1.035370 95.228200 -433.707000 87.799100 7.615650 -22.452000 15.735700 0.000005 -0.000001 42.207400 79.625900 -39.139700 8.984550 -0.406207 -0.000000 6.782730 -15.349000 7.072710 16.377300 -0.000001 -0.000001 2.271440 1.928510 0.009521 6.456720 -0.000001 -0.000000 -9.258670 9.901180 1.802200 12.994200 -0.242716 4.980390 -85.081700 -15.822900 -72.484500 5.348090 -0.000007 -0.000001 -58.160500 5.044660 -59.013600 24.328600 0.000019 0.000005 11.982800 -7.130770 -120.324000 22.291600 -0.000001 0.000005 4.139760 5.386520 -2.504790 12.994500 -0.242716 -4.980390 94.762700 -13.165500 -69.907800 -5.348130 -0.000001 -0.000004 -63.341700 24.505900 37.828800 -24.328900 0.000322 -0.000009 -8.632990 -6.459960 -53.453200 -22.291500 -0.000108 -0.000004 7.336940 5.557000 -9.040890 -2.192480 -6.469440 -0.000000 -165.589000 -14.452600 7.657200 39.081100 -0.000007 -0.000012 0.171628 -0.386670 23.934800 40.985400 -0.000006 -0.000013 -4.302640 4.395150 -20.837600 11.754300 -0.000000 0.000003 -0.000316 -0.005159 -16.787000 -2.192510 6.469440 -0.000001 -173.148000 9.329120 128.343000 -39.081100 -0.002282 -0.040193 -0.020296 0.034047 34.713700 -40.985400 0.000008 0.000006 -4.955540 7.511520 -71.894700 -11.754300 -0.000006 -0.000006 -0.026713 -0.201985 -24.840500
0.000000 0.000000 0.000000 0.000000 0.000000 -0.000000 0.703569 93.442300 -424.764000 89.935200 8.283740 -19.971700 15.735700 0.000005 -0.000001 44.344600 79.506600 -41.785100 8.984550 -0.406207 -0.000000 7.438850 -14.962800 6.114710 16.377300 -0.000001 -0.000001 2.661360 0.775748 0.254828 6.456720 -0.000001 -0.000000 -8.908830 8.148900 2.002240 12.994200 -0.242716 4.980390 -85.809800 -14.469200 -73.658700 5.348090 -0.000007 -0.000001 -55.514600 14.830500 -56.941200 24.328600 0.000019 0.000005 13.317000 -6.399240 -115.214000 22.291600 -0.000001 0.000005 7.662380 5.417890 -3.509960 12.994500 -0.242716 -4.980390 93.700500 -10.760000 -70.893400 -5.348130 -0.000001 -0.000004 -65.407500 22.115700 36.786100 -24.328900 0.000322 -0.000009 -11.731200 -7.880480 -56.558400 -22.291500 -0.000108 -0.000004 8.443210 5.556230 -9.004710 -2.192480 -6.469440 -0.000000 -169.137000 -4.590860 9.804540 39.081100 -0.000007 -0.000012 0.187621 -0.278837 33.935400 40.985400 -0.000006 -0.000013 -3.162030 4.631140 -17.227600 11.754300 -0.000000 0.000003 -0.000224 -0.003696 -16.727600 -2.192510 6.469440 -0.000001 -170.058000 18.064300 133.726000 -39.081100 -0.002282 -0.040193 -0.033457 0.077455 25.393800 -40.985400 0.000008 0.000006 -8.145630 10.247300 -70.662700 -11.754300 -0.000006 -0.000006 -0.026734 -0.202086 -24.844700
0.000000 0.000000 0.000000 0.000000 0.000000 -0.000000 0.298408 90.382600 -416.025000 91.188300 8.179190 -17.842500 15.735700 0.000005 -0.000001 48.792900 79.950000 -46.569800 8.984550 -0.406207 -0.000000 7.773740 -13.190100 5.357220 16.377300 -0.000001 -0.000001 1.952820 -0.268161 0.547406 6.456720 -0.000001 -0.000000 -8.079050 5.934770 1.972280 12.994200 -0.242716 4.980390 -86.696300 -12.225600 -74.752300 5.348090 -0.000007 -0.000001 -55.080200 24.817400 -53.801400 24.328600 0.000019 0.000005 12.300200 -4.076400 -108.049000 22.291600 -0.000001 0.000005 10.496800 5.474250 -5.505250 12.994500 -0.242716 -4.980390 92.153100 -6.882400 -72.586600 -5.348130 -0.000001 -0.000004 -66.367200 17.579500 34.497100 -24.328900 0.000322 -0.000009 -15.415600 -9.300430 -59.620200 -22.291500 -0.000108 -0.000004 12.261000 5.566490 -9.490560 -2.192480 -6.469440 -0.000000 -172.590000 0.863453 8.014660 39.081100 -0.000007 -0.000012 0.194839 -0.158758 50.825700 40.985400 -0.000006 -0.000013 -5.213800 3.901120 -12.489100 11.754300 -0.000000 0.000003 -0.000034 -0.000570 -16.600600 -2.192510 6.469440 -0.000001 -167.024000 23.250100 133.549000 -39.081100 -0.002282 -0.040193 0.334442 -0.518083 32.586400 -40.985400 0.000008 0.000006 2.930380 4.452690 -75.037700 -11.754300 -0.000006 -0.000006 -0.026308 -0.200015 -24.759000
0.000000 0.000000 0.000000 0.000000 0.000000 -0.000000 -0.359722 86.886700 -408.530000 89.844100 7.370740 -18.489100 15.735700 0.000005 -0.000001 55.092100 81.550000 -52.214300 8.984550 -0.406207 -0.000000 6.414540 -9.677580 6.303580 16.377300 -0.000001 -0.000001 0.075232 -1.328160 0.266057 6.456720 -0.000001 -0.000000 -6.974120 3.593850 1.507040 12.994200 -0.242716 4.980390 -87.867600 -7.874420 -74.793600 5.348090 -0.000007 -0.000001 -56.173700 33.768000 -48.844800 24.328600 0.000019 0.000005 12.171900 -1.740750 -98.020100 22.291600 -0.000001 0.000005 13.401600 5.520240 -7.356750 12.994500 -0.242716 -4.980390 90.310000 -1.193050 -75.529000 -5.348130 -0.000001 -0.000004 -65.463700 12.006800 30.731600 -24.328900 0.000322 -0.000009 -20.011400 -10.588300 -63.222400 -22.291500 -0.000108 -0.000004 17.369400 5.589120 -10.684200 -2.192480 -6.469440 -0.000000 -172.943000 1.612210 -1.830620 39.081100 -0.000007 -0.000012 0.194154 -0.056362 73.810500 40.985400 -0.000006 -0.000013 -7.080220 3.373650 -7.611260 11.754300 -0.000000 0.000003 -0.000699 -0.011036 -17.025800 -2.192510 6.469440 -0.000001 -165.428000 22.653000 128.648000 -39.081100 -0.002282 -0.040193 0.416155 -0.400415 45.879800 -40.985400 0.000008 0.000006 7.195220 2.473620 -67.644400 -11.754300 -0.000006 -0.000006 -0.020612 -0.170655 -23.546600
